<svg xmlns="http://www.w3.org/2000/svg" version="1.1" xmlns:xlink="http://www.w3.org/1999/xlink" xmlns:svgjs="http://svgjs.dev/svgjs" width="128" height="128" viewBox="0 0 128 128"><g transform="matrix(0.8046875,0,0,0.8046875,12.333870967741937,12.333870967741937)"><svg viewBox="0 0 155 155" data-background-color="#050816" preserveAspectRatio="xMidYMid meet" height="128" width="128" xmlns="http://www.w3.org/2000/svg" xmlns:xlink="http://www.w3.org/1999/xlink"><g id="tight-bounds" transform="matrix(1,0,0,1,0.25,0.25)"><svg viewBox="0 0 154.5 154.5" height="154.5" width="154.5"><g><svg></svg></g><g><svg viewBox="0 0 154.5 154.5" height="154.5" width="154.5"><g transform="matrix(1,0,0,1,54.52157018291055,47.746371)"><svg viewBox="0 0 45.4568596341789 59.00725799999999" height="59.00725799999999" width="45.4568596341789"><g><svg viewBox="0 0 45.4568596341789 59.00725799999999" height="59.00725799999999" width="45.4568596341789"><g><svg viewBox="0 0 45.4568596341789 59.00725799999999" height="59.00725799999999" width="45.4568596341789"><g><svg viewBox="0 0 45.4568596341789 59.00725799999999" height="59.00725799999999" width="45.4568596341789"><g><svg viewBox="0 0 45.4568596341789 59.00725799999999" height="59.00725799999999" width="45.4568596341789"><g transform="matrix(1,0,0,1,0,0)"><svg width="45.4568596341789" viewBox="1.65 -37 28.85 37.45" height="59.00725799999999" data-palette-color="#f7fff7"><path d="M1.65-13.95Q1.65-18.15 3.33-21.4 5-24.65 7.9-26.4 10.8-28.15 14.35-28.15L14.35-28.15Q17.05-28.15 19.5-26.98 21.95-25.8 23.4-23.85L23.4-23.85 23.4-37 30.5-37 30.5 0 23.4 0 23.4-4.1Q22.1-2.05 19.75-0.8 17.4 0.45 14.3 0.45L14.3 0.45Q10.8 0.45 7.9-1.35 5-3.15 3.33-6.43 1.65-9.7 1.65-13.95L1.65-13.95ZM23.45-13.85Q23.45-16.4 22.45-18.23 21.45-20.05 19.75-21.03 18.05-22 16.1-22L16.1-22Q14.15-22 12.5-21.05 10.85-20.1 9.83-18.28 8.8-16.45 8.8-13.95L8.8-13.95Q8.8-11.45 9.83-9.58 10.85-7.7 12.53-6.7 14.2-5.7 16.1-5.7L16.1-5.7Q18.05-5.7 19.75-6.68 21.45-7.65 22.45-9.47 23.45-11.3 23.45-13.85L23.45-13.85Z" opacity="1" transform="matrix(1,0,0,1,0,0)" fill="#ffffff" class="undefined-text-0" data-fill-palette-color="primary" id="text-0"></path></svg></g></svg></g></svg></g></svg></g></svg></g></svg></g><path d="M54.522 41.746L54.522 1 99.978 1 99.978 41.746 94.657 41.746 94.657 6.321 59.843 6.321 59.843 41.746 54.522 41.746M54.522 112.754L54.522 153.5 99.978 153.5 99.978 112.754 94.657 112.754 94.657 148.179 59.843 148.179 59.843 112.754 54.522 112.754" fill="#ffffff" stroke="transparent" data-fill-palette-color="primary"></path></svg></g><defs></defs></svg><rect width="154.5" height="154.5" fill="none" stroke="none" visibility="hidden"></rect></g></svg></g></svg>