<svg xmlns="http://www.w3.org/2000/svg" 
version="1.1" xmlns:xlink="http://www.w3.org/1999/xlink" 
xmlns:svgjs="http://svgjs.dev/svgjs" 
width="2000" 
height="1247" 
viewBox="0 0 2000 1247"><g 
transform="matrix(1,0,0,1,-1.2121212121212466,0.504858299595071)">
<svg viewBox="0 0 396 247" 
data-background-color="#050816" 
preserveAspectRatio="xMidYMid meet" 
height="1247" width="2000" 
xmlns="http://www.w3.org/2000/svg" 
xmlns:xlink="http://www.w3.org/1999/xlink"><g 
id="tight-bounds" 
transform="matrix(1,0,0,1,0.2400000000000091,-0.09999999999999432)"><svg 
viewBox="0 0 395.52 247.2" 
height="247.2" 
width="395.52"><g><svg></svg></g><g><svg viewBox="0 0 395.52 247.2" 
height="247.2" width="395.52"><g 
transform="matrix(1,0,0,1,75.54432,74.14589717990276)">
<svg viewBox="0 0 244.43135999999998 98.90820564019447" 
height="98.90820564019447" 
width="244.43135999999998"><g><svg 
viewBox="0 0 244.43135999999998 98.90820564019447" 
height="98.90820564019447" 
width="244.43135999999998"><g>
<svg viewBox="0 0 244.43136 98.90820564019448" 
height="98.90820564019447" 
width="244.43135999999998"><g><svg 
viewBox="0 0 244.43136 98.90820564019448" 
height="98.90820564019448" width="244.43136"><g>
<svg viewBox="0 0 244.43136 98.90820564019448" 
height="98.90820564019448" 
width="244.43136"><g><svg 
viewBox="0 0 244.43136 98.90820564019448" 
height="98.90820564019448" 
width="244.43136"><g 
transform="matrix(1,0,0,1,0,0)"><svg 
xwidth="244.43136" viewBox="1.65 -37 92.55 37.45" height="98.90820564019448" data-palette-color="#f7fff7"><path d="M1.65-13.95Q1.65-18.15 3.33-21.4 5-24.65 7.9-26.4 10.8-28.15 14.35-28.15L14.35-28.15Q17.05-28.15 19.5-26.98 21.95-25.8 23.4-23.85L23.4-23.85 23.4-37 30.5-37 30.5 0 23.4 0 23.4-4.1Q22.1-2.05 19.75-0.8 17.4 0.45 14.3 0.45L14.3 0.45Q10.8 0.45 7.9-1.35 5-3.15 3.33-6.43 1.65-9.7 1.65-13.95L1.65-13.95ZM23.45-13.85Q23.45-16.4 22.45-18.23 21.45-20.05 19.75-21.03 18.05-22 16.1-22L16.1-22Q14.15-22 12.5-21.05 10.85-20.1 9.83-18.28 8.8-16.45 8.8-13.95L8.8-13.95Q8.8-11.45 9.83-9.58 10.85-7.7 12.53-6.7 14.2-5.7 16.1-5.7L16.1-5.7Q18.05-5.7 19.75-6.68 21.45-7.65 22.45-9.47 23.45-11.3 23.45-13.85L23.45-13.85ZM63.1-14.45Q63.1-12.95 62.9-11.75L62.9-11.75 42.65-11.75Q42.9-8.75 44.75-7.05 46.6-5.35 49.3-5.35L49.3-5.35Q53.2-5.35 54.85-8.7L54.85-8.7 62.4-8.7Q61.2-4.7 57.8-2.13 54.4 0.45 49.45 0.45L49.45 0.45Q45.45 0.45 42.27-1.33 39.1-3.1 37.32-6.35 35.55-9.6 35.55-13.85L35.55-13.85Q35.55-18.15 37.3-21.4 39.05-24.65 42.2-26.4 45.35-28.15 49.45-28.15L49.45-28.15Q53.4-28.15 56.52-26.45 59.65-24.75 61.37-21.63 63.1-18.5 63.1-14.45L63.1-14.45ZM42.7-16.45L55.85-16.45Q55.8-19.15 53.9-20.78 52-22.4 49.25-22.4L49.25-22.4Q46.65-22.4 44.87-20.83 43.1-19.25 42.7-16.45L42.7-16.45ZM72.75-27.7L79.75-6.45 86.75-27.7 94.2-27.7 83.95 0 75.45 0 65.25-27.7 72.75-27.7Z" opacity="1" transform="matrix(1,0,0,1,0,0)" fill="#ffffff" class="undefined-text-0" data-fill-palette-color="primary" id="text-0"></path></svg></g></svg></g></svg></g></svg></g></svg></g></svg></g></svg></g><path d="M225.613 68.146L225.613 16.441 11.295 16.441 11.295 230.759 225.613 230.759 225.613 179.054 216.693 179.054 216.693 221.839 20.214 221.839 20.214 25.361 216.693 25.361 216.693 68.146Z" fill="#ffffff" stroke="transparent" data-fill-palette-color="primary"></path></svg></g><defs></defs></svg><rect width="395.52" height="247.2" fill="none" stroke="none" visibility="hidden"></rect></g></svg></g></svg>